<svg width="2898" height="3314" viewBox="0 0 2898 3314" fill="none" xmlns="http://www.w3.org/2000/svg">
<path d="M1150.06 343.777C1136.42 329.427 1390.6 53.1532 1344.97 10.7986C1299.35 -31.556 1101.06 294.06 1056.66 303.169C1012.27 312.279 1039.81 199.657 1028.24 144.802C1016.66 89.9471 898.647 74.9206 828.488 139.567C758.328 204.213 656.284 481.84 599.988 638.944C543.691 796.047 10.9235 1372.35 7.02239 1586.91C3.12127 1801.47 510.263 2390.53 576.581 2495.86C642.9 2601.19 559.945 2686.94 476.722 2958.72C393.499 3230.49 1937.26 3246.48 2026.69 3219.05C2397.19 3105.4 2319.05 3142 2397.19 3192.9C2523.36 3275.07 2702.42 3350.21 2820.08 3275.07C2937.74 3199.94 2898.19 2962.59 2772.49 2695.72C2617.62 2366.92 1908.66 2316 1874.93 2191.01C1858.68 2130.77 1986.43 1669.3 2026.69 1567.1C2066.96 1464.89 2063.14 1308.33 2063.14 1226.79C2063.14 1069.38 1865.54 818.098 1588.2 825.593C1310.87 833.089 1191.11 1007.45 1150.06 1189.12C1109.01 1370.8 1171.58 1828.8 1198.44 1904.95C1225.3 1981.09 1372.88 2075.55 1326.99 2191.01C1281.11 2306.47 596.175 1846.28 534.272 1718.35C472.369 1590.41 709.664 890.909 849.568 757.969C989.472 625.028 1056.03 541.173 1150.06 481.84C1244.09 422.508 1528.85 303.169 1507.4 266.623C1485.95 230.077 1163.7 358.126 1150.06 343.777Z" fill="url(#paint0_linear_52_113)" stroke="white" stroke-width="14"/>
<path d="M1453.36 1335.05C1322.14 1273.15 1167.47 1197.59 944.505 1283.97C933.356 1288.28 953.769 1263.2 1091.96 1184.95C1124.03 1158.6 1160.24 1148.03 1167.47 1116.03C1174.69 1084.03 1246.9 791.698 1476.07 745.502C1995.45 640.801 2052.95 1038.87 2041.1 1123.71C2026.25 1229.99 1779.07 1299.68 1616.58 1299.68C1553.22 1299.68 1546.96 1379.2 1453.36 1335.05Z" fill="white" stroke="white"/>
<ellipse cx="1621.96" cy="728.086" rx="27.1643" ry="9.05469" fill="white"/>
<defs>
<linearGradient id="paint0_linear_52_113" x1="1435.39" y1="7" x2="1435.39" y2="3465.48" gradientUnits="userSpaceOnUse">
<stop/>
<stop offset="1" stop-color="#8F8F8F"/>
</linearGradient>
</defs>
</svg>
